<svg xmlns="http://www.w3.org/2000/svg" viewBox="0 0 316 64" width="316" height="64" role="img" aria-label="Assemblywright">
  <title>Assemblywright horizontal lockup</title>
  <g fill="none" stroke="currentColor" stroke-width="5" stroke-linecap="round" stroke-linejoin="round">
    <path d="M13 55 L32 9 L51 55"/>
    <path d="M18 40 L26 48 L47 25"/>
  </g>
  <path fill="currentColor" d="M70 44 L77.67 22.59 L81.6 22.59 L74.55 44 Z M85.7 44 L78.68 22.59 L82.79 22.59 L90.46 44 Z M74.05 35.71 L86.06 35.71 L86.06 39.27 L74.05 39.27 Z M98.81 44.3 Q95.48 44.3 93.52 42.96 Q91.56 41.62 91.38 39.27 L95.36 39.27 Q95.51 40.28 96.39 40.8 Q97.27 41.32 98.81 41.32 Q100.21 41.32 100.85 40.92 Q101.49 40.52 101.49 39.78 Q101.49 39.21 101.12 38.9 Q100.74 38.59 99.76 38.38 L97.33 37.88 Q94.62 37.31 93.34 36.17 Q92.06 35.02 92.06 33.21 Q92.06 31.01 93.76 29.77 Q95.45 28.54 98.48 28.54 Q101.49 28.54 103.27 29.74 Q105.05 30.95 105.23 33.09 L101.25 33.09 Q101.13 32.32 100.42 31.91 Q99.7 31.51 98.4 31.51 Q97.21 31.51 96.63 31.86 Q96.05 32.2 96.05 32.82 Q96.05 33.36 96.52 33.67 Q97 33.98 98.1 34.22 L100.83 34.78 Q103.12 35.26 104.3 36.55 Q105.47 37.85 105.47 39.6 Q105.47 41.83 103.73 43.06 Q101.99 44.3 98.81 44.3 Z M114.33 44.3 Q111 44.3 109.04 42.96 Q107.08 41.62 106.9 39.27 L110.88 39.27 Q111.03 40.28 111.91 40.8 Q112.78 41.32 114.33 41.32 Q115.73 41.32 116.37 40.92 Q117.01 40.52 117.01 39.78 Q117.01 39.21 116.63 38.9 Q116.26 38.59 115.28 38.38 L112.84 37.88 Q110.14 37.31 108.86 36.17 Q107.58 35.02 107.58 33.21 Q107.58 31.01 109.28 29.77 Q110.97 28.54 114 28.54 Q117.01 28.54 118.79 29.74 Q120.57 30.95 120.75 33.09 L116.77 33.09 Q116.65 32.32 115.94 31.91 Q115.22 31.51 113.91 31.51 Q112.73 31.51 112.15 31.86 Q111.57 32.2 111.57 32.82 Q111.57 33.36 112.04 33.67 Q112.52 33.98 113.62 34.22 L116.35 34.78 Q118.64 35.26 119.82 36.55 Q120.99 37.85 120.99 39.6 Q120.99 41.83 119.25 43.06 Q117.51 44.3 114.33 44.3 Z M131.16 44.3 Q128.63 44.3 126.76 43.3 Q124.88 42.31 123.86 40.52 Q122.83 38.74 122.83 36.42 Q122.83 34.07 123.86 32.3 Q124.88 30.53 126.73 29.54 Q128.57 28.54 131.01 28.54 Q133.36 28.54 135.08 29.49 Q136.81 30.44 137.76 32.14 Q138.71 33.83 138.71 36.12 Q138.71 36.6 138.68 37 Q138.65 37.4 138.59 37.76 L125.45 37.76 L125.45 34.81 L134.99 34.81 L134.22 35.35 Q134.22 33.51 133.34 32.63 Q132.47 31.75 130.95 31.75 Q129.2 31.75 128.23 32.94 Q127.26 34.13 127.26 36.51 Q127.26 38.83 128.23 39.96 Q129.2 41.09 131.13 41.09 Q132.2 41.09 132.97 40.73 Q133.74 40.37 134.13 39.57 L138.32 39.57 Q137.58 41.77 135.78 43.03 Q133.98 44.3 131.16 44.3 Z M141.38 44 L141.38 28.84 L145.75 28.84 L145.75 32.41 L145.84 32.41 L145.84 44 Z M151.58 44 L151.58 34.37 Q151.58 33.21 150.97 32.66 Q150.36 32.11 149.26 32.11 Q148.31 32.11 147.52 32.54 Q146.74 32.97 146.29 33.76 Q145.84 34.55 145.84 35.62 L145.46 32.2 Q146.2 30.53 147.61 29.54 Q149.03 28.54 151.02 28.54 Q153.4 28.54 154.72 29.88 Q156.04 31.22 156.04 33.24 L156.04 44 Z M161.78 44 L161.78 34.37 Q161.78 33.21 161.17 32.66 Q160.56 32.11 159.46 32.11 Q158.51 32.11 157.72 32.54 Q156.93 32.97 156.49 33.76 Q156.04 34.55 156.04 35.62 L155.36 32.2 Q156.1 30.53 157.57 29.54 Q159.04 28.54 161.13 28.54 Q163.59 28.54 164.92 29.92 Q166.24 31.31 166.24 33.54 L166.24 44 Z M179.17 44.3 Q177 44.3 175.65 43.29 Q174.3 42.28 174.06 40.52 L174.3 40.49 L174.3 44 L169.93 44 L169.93 22.59 L174.38 22.59 L174.38 32.2 L174.12 32.14 Q174.44 30.47 175.86 29.51 Q177.27 28.54 179.41 28.54 Q181.46 28.54 182.96 29.51 Q184.46 30.47 185.28 32.23 Q186.1 33.98 186.1 36.36 Q186.1 38.77 185.24 40.55 Q184.37 42.34 182.83 43.32 Q181.28 44.3 179.17 44.3 Z M177.92 40.73 Q179.5 40.73 180.48 39.6 Q181.46 38.47 181.46 36.39 Q181.46 34.31 180.46 33.21 Q179.47 32.11 177.86 32.11 Q176.32 32.11 175.32 33.22 Q174.33 34.34 174.33 36.42 Q174.33 38.5 175.32 39.61 Q176.32 40.73 177.92 40.73 Z M188.89 44 L188.89 22.59 L193.35 22.59 L193.35 44 Z M197.99 50.09 L202.18 40.82 L202.95 39.54 L206.88 28.84 L211.64 28.84 L202.45 50.09 Z M201.2 43.7 L195.37 28.84 L200.19 28.84 L204.98 42.39 Z M216.81 44 L212.17 28.84 L216.87 28.84 L219.19 39.42 L219.07 39.42 L221.98 28.84 L226.14 28.84 L229.09 39.42 L228.97 39.42 L231.26 28.84 L235.84 28.84 L231.2 44 L226.92 44 L223.94 33.45 L224.06 33.45 L221.09 44 Z M238.21 44 L238.21 28.84 L242.58 28.84 L242.58 32.41 L242.67 32.41 L242.67 44 Z M242.67 36.09 L242.29 32.49 Q242.82 30.56 244.04 29.55 Q245.26 28.54 247.07 28.54 Q247.64 28.54 247.91 28.66 L247.91 32.82 Q247.76 32.76 247.49 32.75 Q247.22 32.73 246.84 32.73 Q244.7 32.73 243.68 33.49 Q242.67 34.25 242.67 36.09 Z M250.11 44 L250.11 28.84 L254.57 28.84 L254.57 44 Z M249.96 26.82 L249.96 22 L254.71 22 L254.71 26.82 Z M265.27 50.39 Q262.12 50.39 260.14 49.05 Q258.16 47.72 257.81 45.43 L262.03 45.43 Q262.27 45.99 263.05 46.29 Q263.84 46.59 265.06 46.59 Q267.08 46.59 268 45.81 Q268.92 45.04 268.92 43.41 L268.92 40.11 L269.16 40.16 Q268.87 41.83 267.44 42.8 Q266.01 43.76 263.9 43.76 Q261.88 43.76 260.38 42.83 Q258.88 41.89 258.04 40.19 Q257.21 38.5 257.21 36.21 Q257.21 33.89 258.07 32.17 Q258.94 30.44 260.5 29.49 Q262.06 28.54 264.14 28.54 Q266.28 28.54 267.63 29.55 Q268.98 30.56 269.22 32.32 L269.01 32.35 L269.01 28.84 L273.38 28.84 L273.38 43.35 Q273.38 46.62 271.21 48.5 Q269.04 50.39 265.27 50.39 Z M265.45 40.34 Q267.02 40.34 268 39.26 Q268.98 38.17 268.98 36.15 Q268.98 34.13 267.99 33.04 Q266.99 31.96 265.39 31.96 Q263.84 31.96 262.85 33.06 Q261.85 34.16 261.85 36.18 Q261.85 38.2 262.85 39.27 Q263.84 40.34 265.45 40.34 Z M277.25 44 L277.25 22.59 L281.71 22.59 L281.71 44 Z M287.8 44 L287.8 34.61 Q287.8 33.36 287.16 32.73 Q286.52 32.11 285.31 32.11 Q284.27 32.11 283.45 32.58 Q282.63 33.06 282.17 33.89 Q281.71 34.72 281.71 35.85 L281.32 32.2 Q282.07 30.53 283.51 29.54 Q284.95 28.54 287.06 28.54 Q289.59 28.54 290.92 29.95 Q292.26 31.36 292.26 33.74 L292.26 44 Z M302.49 44.33 Q299.58 44.33 298.16 42.91 Q296.75 41.5 296.75 38.62 L296.75 25.45 L301.21 23.78 L301.21 38.77 Q301.21 39.78 301.78 40.28 Q302.34 40.79 303.53 40.79 Q303.98 40.79 304.36 40.7 Q304.75 40.61 305.14 40.49 L305.14 43.88 Q304.75 44.09 304.05 44.21 Q303.35 44.33 302.49 44.33 Z M293.93 32.23 L293.93 28.84 L305.14 28.84 L305.14 32.23 Z"/>
</svg>
